# 3ds Max Wavefront OBJ Exporter v0.97b - (c)2007 guruware
# File Created: 29.08.2017 22:56:07

mtllib BB_0829.mtl

#
# object head
#

v  0.0000 2.0128 0.2927
v  -0.0000 1.8034 -0.0701
v  -0.3141 1.8034 0.1113
v  -0.3141 1.8034 0.4741
v  0.0000 1.8034 0.6554
v  0.3141 1.8034 0.4741
v  0.3141 1.8034 0.1113
v  -0.0000 1.3845 -0.0701
v  -0.3141 1.3845 0.1113
v  -0.3141 1.3845 0.4741
v  0.0000 1.3845 0.6554
v  0.3141 1.3845 0.4741
v  0.3141 1.3845 0.1113
v  0.0000 1.1751 0.2927
# 14 vertices

vn -0.0000 1.0000 -0.0000
vn 0.0000 0.4413 -0.8973
vn -0.7771 0.4413 -0.4487
vn -0.7771 0.4413 0.4487
vn -0.0000 0.4413 0.8973
vn 0.7771 0.4413 0.4487
vn 0.7771 0.4413 -0.4487
vn 0.0000 -0.4413 -0.8973
vn -0.7771 -0.4413 -0.4487
vn -0.7771 -0.4413 0.4487
vn -0.0000 -0.4413 0.8973
vn 0.7771 -0.4413 0.4487
vn 0.7771 -0.4413 -0.4487
vn 0.0000 -1.0000 -0.0000
# 14 vertex normals

vt 0.0000 1.0000 0.0000
vt 0.0000 0.6667 0.0000
vt 0.1667 0.6667 0.0000
vt 0.1667 1.0000 0.0000
vt 0.3333 0.6667 0.0000
vt 0.3333 1.0000 0.0000
vt 0.5000 0.6667 0.0000
vt 0.5000 1.0000 0.0000
vt 0.6667 0.6667 0.0000
vt 0.6667 1.0000 0.0000
vt 0.8333 0.6667 0.0000
vt 0.8333 1.0000 0.0000
vt 1.0000 0.6667 0.0000
vt 0.0000 0.3333 0.0000
vt 0.1667 0.3333 0.0000
vt 0.3333 0.3333 0.0000
vt 0.5000 0.3333 0.0000
vt 0.6667 0.3333 0.0000
vt 0.8333 0.3333 0.0000
vt 1.0000 0.3333 0.0000
vt 0.0000 0.0000 0.0000
vt 0.1667 0.0000 0.0000
vt 0.3333 0.0000 0.0000
vt 0.5000 0.0000 0.0000
vt 0.6667 0.0000 0.0000
vt 0.8333 0.0000 0.0000
# 26 texture coords

g head
usemtl wire_008110135
s 1
f 1/1/1 2/2/2 3/3/3 
f 1/4/1 3/3/3 4/5/4 
f 1/6/1 4/5/4 5/7/5 
f 1/8/1 5/7/5 6/9/6 
f 1/10/1 6/9/6 7/11/7 
f 1/12/1 7/11/7 2/13/2 
f 2/2/2 8/14/8 9/15/9 3/3/3 
f 3/3/3 9/15/9 10/16/10 4/5/4 
f 4/5/4 10/16/10 11/17/11 5/7/5 
f 5/7/5 11/17/11 12/18/12 6/9/6 
f 6/9/6 12/18/12 13/19/13 7/11/7 
f 7/11/7 13/19/13 8/20/8 2/13/2 
f 14/21/14 9/15/9 8/14/8 
f 14/22/14 10/16/10 9/15/9 
f 14/23/14 11/17/11 10/16/10 
f 14/24/14 12/18/12 11/17/11 
f 14/25/14 13/19/13 12/18/12 
f 14/26/14 8/20/8 13/19/13 
# 6 polygons - 12 triangles

#
# object butt
#

v  -0.2062 0.6053 0.1224
v  -0.2062 0.6053 -0.1989
v  0.2062 0.6053 -0.1989
v  0.2062 0.6053 0.1224
v  -0.2062 0.8139 0.1224
v  0.2062 0.8139 0.1224
v  0.2062 0.8139 -0.1989
v  -0.2062 0.8139 -0.1989
# 8 vertices

vn 0.0000 -1.0000 -0.0000
vn 0.0000 1.0000 -0.0000
vn 0.0000 0.0000 1.0000
vn 1.0000 0.0000 -0.0000
vn 0.0000 0.0000 -1.0000
vn -1.0000 0.0000 -0.0000
# 6 vertex normals

vt 1.0000 0.0000 0.0000
vt 1.0000 1.0000 0.0000
vt 0.0000 1.0000 0.0000
vt 0.0000 0.0000 0.0000
# 4 texture coords

g butt
usemtl wire_225087143
s 2
f 15/27/15 16/28/15 17/29/15 18/30/15 
s 4
f 19/30/16 20/27/16 21/28/16 22/29/16 
s 8
f 15/30/17 18/27/17 20/28/17 19/29/17 
s 16
f 18/30/18 17/27/18 21/28/18 20/29/18 
s 32
f 17/30/19 16/27/19 22/28/19 21/29/19 
s 64
f 16/30/20 15/27/20 19/28/20 22/29/20 
# 6 polygons

#
# object Left_arm01
#

v  0.2952 0.8207 0.0990
v  0.1690 1.2520 -0.0665
v  0.2990 1.2915 -0.0626
v  0.4251 0.8602 0.1028
v  0.2794 0.8613 0.2169
v  0.4093 0.9007 0.2207
v  0.2832 1.3321 0.0552
v  0.1532 1.2926 0.0514
# 8 vertices

vn 0.1258 -0.3231 -0.9380
vn -0.1258 0.3231 0.9380
vn 0.2634 -0.9007 0.3456
vn 0.9565 0.2905 0.0283
vn -0.2634 0.9007 -0.3456
vn -0.9565 -0.2905 -0.0283
# 6 vertex normals

vt 1.0000 0.0000 0.0000
vt 1.0000 1.0000 0.0000
vt 0.0000 1.0000 0.0000
vt 0.0000 0.0000 0.0000
# 4 texture coords

g Left_arm01
usemtl wire_225087143
s 2
f 23/31/21 24/32/21 25/33/21 26/34/21 
s 4
f 27/34/22 28/31/22 29/32/22 30/33/22 
s 8
f 23/34/23 26/31/23 28/32/23 27/33/23 
s 16
f 26/34/24 25/31/24 29/32/24 28/33/24 
s 32
f 25/34/25 24/31/25 30/32/25 29/33/25 
s 64
f 24/34/26 23/31/26 27/32/26 30/33/26 
# 6 polygons

#
# object Left_arm02
#

v  0.3308 0.8867 0.0539
v  0.1125 1.1665 0.3754
v  0.2322 1.1923 0.4343
v  0.4505 0.9124 0.1128
v  0.3150 0.7875 0.1295
v  0.4347 0.8133 0.1883
v  0.2164 1.0932 0.5098
v  0.0967 1.0674 0.4510
# 8 vertices

vn 0.1258 0.7890 -0.6014
vn -0.1258 -0.7890 0.6014
vn 0.4558 -0.5844 -0.6714
vn 0.8811 0.1896 0.4332
vn -0.4558 0.5844 0.6714
vn -0.8811 -0.1896 -0.4332
# 6 vertex normals

vt 1.0000 0.0000 0.0000
vt 1.0000 1.0000 0.0000
vt 0.0000 1.0000 0.0000
vt 0.0000 0.0000 0.0000
# 4 texture coords

g Left_arm02
usemtl wire_225087143
s 2
f 31/35/27 32/36/27 33/37/27 34/38/27 
s 4
f 35/38/28 36/35/28 37/36/28 38/37/28 
s 8
f 31/38/29 34/35/29 36/36/29 35/37/29 
s 16
f 34/38/30 33/35/30 37/36/30 36/37/30 
s 32
f 33/38/31 32/35/31 38/36/31 37/37/31 
s 64
f 32/38/32 31/35/32 35/36/32 38/37/32 
# 6 polygons

#
# object Right_arm01
#

v  -0.4013 0.8505 0.1034
v  -0.2820 1.2729 -0.0880
v  -0.1511 1.2478 -0.0618
v  -0.2704 0.8254 0.1297
v  -0.4134 0.9050 0.2160
v  -0.2825 0.8798 0.2422
v  -0.1631 1.3023 0.0508
v  -0.2941 1.3274 0.0246
# 8 vertices

vn 0.0963 -0.4334 -0.8961
vn -0.0963 0.4334 0.8961
vn -0.2492 -0.8821 0.3998
vn 0.9636 -0.1848 0.1929
vn 0.2492 0.8821 -0.3998
vn -0.9636 0.1848 -0.1929
# 6 vertex normals

vt 1.0000 0.0000 0.0000
vt 1.0000 1.0000 0.0000
vt 0.0000 1.0000 0.0000
vt 0.0000 0.0000 0.0000
# 4 texture coords

g Right_arm01
usemtl wire_225087143
s 2
f 39/39/33 40/40/33 41/41/33 42/42/33 
s 4
f 43/42/34 44/39/34 45/40/34 46/41/34 
s 8
f 39/42/35 42/39/35 44/40/35 43/41/35 
s 16
f 42/42/36 41/39/36 45/40/36 44/41/36 
s 32
f 41/42/37 40/39/37 46/40/37 45/41/37 
s 64
f 40/42/38 39/39/38 43/40/38 46/41/38 
# 6 polygons

#
# object Right_arm02
#

v  -0.4033 0.9096 0.0825
v  -0.2270 1.2147 0.4069
v  -0.1011 1.1726 0.3781
v  -0.2774 0.8676 0.0537
v  -0.4127 0.8209 0.1710
v  -0.2867 0.7789 0.1422
v  -0.1104 1.0839 0.4666
v  -0.2364 1.1260 0.4954
# 8 vertices

vn 0.0745 0.7060 -0.7043
vn -0.0745 -0.7060 0.7043
vn -0.3681 -0.6369 -0.6774
vn 0.9268 -0.3097 -0.2125
vn 0.3681 0.6369 0.6774
vn -0.9268 0.3097 0.2125
# 6 vertex normals

vt 1.0000 0.0000 0.0000
vt 1.0000 1.0000 0.0000
vt 0.0000 1.0000 0.0000
vt 0.0000 0.0000 0.0000
# 4 texture coords

g Right_arm02
usemtl wire_225087143
s 2
f 47/43/39 48/44/39 49/45/39 50/46/39 
s 4
f 51/46/40 52/43/40 53/44/40 54/45/40 
s 8
f 47/46/41 50/43/41 52/44/41 51/45/41 
s 16
f 50/46/42 49/43/42 53/44/42 52/45/42 
s 32
f 49/46/43 48/43/43 54/44/43 53/45/43 
s 64
f 48/46/44 47/43/44 51/44/44 54/45/44 
# 6 polygons

#
# object Left_thigh
#

v  0.0882 0.5965 0.3731
v  -0.0145 0.6423 -0.0924
v  0.1564 0.5993 -0.1343
v  0.2591 0.5536 0.3312
v  0.1305 0.7585 0.3797
v  0.3014 0.7155 0.3378
v  0.1988 0.7613 -0.1277
v  0.0279 0.8042 -0.0858
# 8 vertices

vn -0.2528 -0.9667 -0.0393
vn 0.2528 0.9667 0.0393
vn 0.2144 -0.0955 0.9721
vn 0.9435 -0.2373 -0.2314
vn -0.2144 0.0955 -0.9721
vn -0.9435 0.2373 0.2314
# 6 vertex normals

vt 1.0000 0.0000 0.0000
vt 1.0000 1.0000 0.0000
vt 0.0000 1.0000 0.0000
vt 0.0000 0.0000 0.0000
# 4 texture coords

g Left_thigh
usemtl wire_225087143
s 2
f 55/47/45 56/48/45 57/49/45 58/50/45 
s 4
f 59/50/46 60/47/46 61/48/46 62/49/46 
s 8
f 55/50/47 58/47/47 60/48/47 59/49/47 
s 16
f 58/50/48 57/47/48 61/48/48 60/49/48 
s 32
f 57/50/49 56/47/49 62/48/49 61/49/49 
s 64
f 56/50/50 55/47/50 59/48/50 62/49/50 
# 6 polygons

#
# object Right_thigh
#

v  -0.2841 0.5852 0.3484
v  -0.2188 0.5873 -0.1260
v  -0.0403 0.6060 -0.1014
v  -0.1056 0.6039 0.3731
v  -0.3013 0.7518 0.3468
v  -0.1228 0.7705 0.3714
v  -0.0575 0.7726 -0.1030
v  -0.2360 0.7539 -0.1277
# 8 vertices

vn 0.1030 -0.9946 0.0099
vn -0.1030 0.9946 -0.0099
vn -0.1364 -0.0043 0.9907
vn 0.9853 0.1033 0.1361
vn 0.1364 0.0043 -0.9907
vn -0.9853 -0.1033 -0.1361
# 6 vertex normals

vt 1.0000 0.0000 0.0000
vt 1.0000 1.0000 0.0000
vt 0.0000 1.0000 0.0000
vt 0.0000 0.0000 0.0000
# 4 texture coords

g Right_thigh
usemtl wire_225087143
s 2
f 63/51/51 64/52/51 65/53/51 66/54/51 
s 4
f 67/54/52 68/51/52 69/52/52 70/53/52 
s 8
f 63/54/53 66/51/53 68/52/53 67/53/53 
s 16
f 66/54/54 65/51/54 69/52/54 68/53/54 
s 32
f 65/54/55 64/51/55 70/52/55 69/53/55 
s 64
f 64/54/56 63/51/56 67/52/56 70/53/56 
# 6 polygons

#
# object Left_calf
#

v  0.1496 0.7569 0.3883
v  0.0551 0.2874 0.3949
v  0.1877 0.2606 0.3816
v  0.2821 0.7300 0.3750
v  0.1373 0.7576 0.2633
v  0.2698 0.7308 0.2500
v  0.1753 0.2613 0.2566
v  0.0428 0.2882 0.2698
# 8 vertices

vn 0.0983 -0.0058 0.9951
vn -0.0983 0.0058 -0.9951
vn 0.1972 0.9803 -0.0137
vn 0.9754 -0.1976 -0.0975
vn -0.1972 -0.9803 0.0137
vn -0.9754 0.1976 0.0975
# 6 vertex normals

vt 1.0000 0.0000 0.0000
vt 1.0000 1.0000 0.0000
vt 0.0000 1.0000 0.0000
vt 0.0000 0.0000 0.0000
# 4 texture coords

g Left_calf
usemtl wire_225087143
s 2
f 71/55/57 72/56/57 73/57/57 74/58/57 
s 4
f 75/58/58 76/55/58 77/56/58 78/57/58 
s 8
f 71/58/59 74/55/59 76/56/59 75/57/59 
s 16
f 74/58/60 73/55/60 77/56/60 76/57/60 
s 32
f 73/58/61 72/55/61 78/56/61 77/57/61 
s 64
f 72/58/62 71/55/62 75/56/62 78/57/62 
# 6 polygons

#
# object Right_calf
#

v  -0.3098 0.7576 0.3296
v  -0.1853 0.4004 0.6233
v  -0.0559 0.4416 0.6185
v  -0.1804 0.7987 0.3247
v  -0.2898 0.6830 0.2304
v  -0.1604 0.7242 0.2256
v  -0.0359 0.3670 0.5193
v  -0.1653 0.3259 0.5242
# 8 vertices

vn -0.1592 0.5934 0.7890
vn 0.1592 -0.5934 -0.7890
vn -0.2601 0.7458 -0.6134
vn 0.9524 0.3028 -0.0356
vn 0.2601 -0.7458 0.6134
vn -0.9524 -0.3028 0.0356
# 6 vertex normals

vt 1.0000 0.0000 0.0000
vt 1.0000 1.0000 0.0000
vt 0.0000 1.0000 0.0000
vt 0.0000 0.0000 0.0000
# 4 texture coords

g Right_calf
usemtl wire_225087143
s 2
f 79/59/63 80/60/63 81/61/63 82/62/63 
s 4
f 83/62/64 84/59/64 85/60/64 86/61/64 
s 8
f 79/62/65 82/59/65 84/60/65 83/61/65 
s 16
f 82/62/66 81/59/66 85/60/66 84/61/66 
s 32
f 81/62/67 80/59/67 86/60/67 85/61/67 
s 64
f 80/62/68 79/59/68 83/60/68 86/61/68 
# 6 polygons

#
# object body
#

v  -0.2062 0.8071 0.1417
v  -0.2062 0.8071 -0.1796
v  0.2062 0.8071 -0.1796
v  0.2062 0.8071 0.1417
v  -0.2062 1.3494 0.1417
v  0.2062 1.3494 0.1417
v  0.2062 1.3494 -0.1796
v  -0.2062 1.3494 -0.1796
# 8 vertices

vn 0.0000 -1.0000 -0.0000
vn 0.0000 1.0000 -0.0000
vn 0.0000 0.0000 1.0000
vn 1.0000 0.0000 -0.0000
vn 0.0000 0.0000 -1.0000
vn -1.0000 0.0000 -0.0000
# 6 vertex normals

vt 1.0000 0.0000 0.0000
vt 1.0000 1.0000 0.0000
vt 0.0000 1.0000 0.0000
vt 0.0000 0.0000 0.0000
# 4 texture coords

g body
usemtl wire_225087143
s 2
f 87/63/69 88/64/69 89/65/69 90/66/69 
s 4
f 91/66/70 92/63/70 93/64/70 94/65/70 
s 8
f 87/66/71 90/63/71 92/64/71 91/65/71 
s 16
f 90/66/72 89/63/72 93/64/72 92/65/72 
s 32
f 89/66/73 88/63/73 94/64/73 93/65/73 
s 64
f 88/66/74 87/63/74 91/64/74 94/65/74 
# 6 polygons

